<svg width="58" height="57" viewBox="0 0 58 57" fill="none" xmlns="http://www.w3.org/2000/svg">
<path d="M31.2449 51.5102C17.2969 51.5102 5.9898 40.2031 5.9898 26.2551C5.9898 12.3071 17.2969 1 31.2449 1C45.1929 1 56.5 12.3071 56.5 26.2551C56.5 40.2031 45.1929 51.5102 31.2449 51.5102Z" stroke="black" stroke-width="2" stroke-linecap="round" stroke-linejoin="round"/>
<path d="M31.2449 51.5102C17.2969 51.5102 5.9898 40.2031 5.9898 26.2551C5.9898 12.3071 17.2969 1 31.2449 1C45.1929 1 56.5 12.3071 56.5 26.2551C56.5 40.2031 45.1929 51.5102 31.2449 51.5102Z" stroke="black" stroke-width="2" stroke-linecap="round" stroke-linejoin="round"/>
<path d="M12.7227 44.7734L1.49817 55.9979" stroke="black" stroke-width="2" stroke-linecap="round" stroke-linejoin="round"/>
<path d="M18.3359 14.4688V39.1626H41.9074" stroke="black" stroke-width="2" stroke-linecap="round" stroke-linejoin="round"/>
<path d="M23.9492 33.5529C23.9471 29.0851 24.4654 23.5659 28.1489 22.9527C31.8323 22.3394 32.3614 28.1296 36.5737 27.7546C40.786 27.3795 41 22.002 40.786 15.5938" stroke="black" stroke-width="2" stroke-linecap="round" stroke-linejoin="round"/>
<path d="M44.1557 18.235L40.8047 14.4688L37.4537 18.235" stroke="black" stroke-width="2" stroke-linecap="round" stroke-linejoin="round"/>
</svg>
