<svg width="160" height="181" viewBox="0 0 160 181" fill="none" xmlns="http://www.w3.org/2000/svg">
<g filter="url(#filter0_d_216_5597)">
<rect x="5" y="2" width="150" height="170.106" rx="10" fill="#41BBFF" shape-rendering="crispEdges"/>
<rect x="5" y="2" width="150" height="170.106" rx="10" fill="url(#paint0_linear_216_5597)" shape-rendering="crispEdges"/>
<rect x="5" y="2" width="150" height="170.106" rx="10" fill="url(#paint1_linear_216_5597)" shape-rendering="crispEdges"/>
<path d="M73.6332 58.6281L87.1637 58.6281" stroke="white" stroke-width="2" stroke-linecap="round" stroke-linejoin="round"/>
<path d="M76.6988 48.1629H63.1684" stroke="white" stroke-width="2" stroke-linecap="round" stroke-linejoin="round"/>
<path d="M84.0981 48.1629L97.6285 48.1629" stroke="white" stroke-width="2" stroke-linecap="round" stroke-linejoin="round"/>
<path d="M73.6332 37.6977H87.1637" stroke="white" stroke-width="2" stroke-linecap="round" stroke-linejoin="round"/>
<path d="M83.0147 29.8489C81.5698 31.2938 79.2271 31.2938 77.7821 29.8489C76.3372 28.4039 76.3372 26.0612 77.7821 24.6163C79.2271 23.1714 81.5698 23.1714 83.0147 24.6163C84.4596 26.0612 84.4597 28.4039 83.0147 29.8489Z" stroke="white" stroke-width="2" stroke-linecap="round" stroke-linejoin="round"/>
<path d="M93.4796 40.3141C92.0347 41.759 89.6919 41.759 88.247 40.3141C86.8021 38.8692 86.8021 36.5264 88.247 35.0815C89.6919 33.6365 92.0347 33.6366 93.4796 35.0815C94.9245 36.5264 94.9245 38.8691 93.4796 40.3141Z" stroke="white" stroke-width="2" stroke-linecap="round" stroke-linejoin="round"/>
<path d="M103.944 50.7792C102.5 52.2242 100.157 52.2242 98.7118 50.7792C97.2669 49.3343 97.2669 46.9916 98.7118 45.5467C100.157 44.1017 102.5 44.1017 103.944 45.5467C105.389 46.9916 105.389 49.3343 103.944 50.7792Z" stroke="white" stroke-width="2" stroke-linecap="round" stroke-linejoin="round"/>
<path d="M93.4796 61.2444C92.0347 62.6893 89.6919 62.6893 88.247 61.2444C86.8021 59.7995 86.8021 57.4567 88.247 56.0118C89.6919 54.5669 92.0347 54.5669 93.4796 56.0118C94.9245 57.4567 94.9245 59.7995 93.4796 61.2444Z" stroke="white" stroke-width="2" stroke-linecap="round" stroke-linejoin="round"/>
<path d="M83.0147 71.7096C81.5698 73.1545 79.2271 73.1545 77.7821 71.7096C76.3372 70.2647 76.3372 67.9219 77.7821 66.477C79.2271 65.0321 81.5698 65.0321 83.0147 66.477C84.4596 67.9219 84.4596 70.2647 83.0147 71.7096Z" stroke="white" stroke-width="2" stroke-linecap="round" stroke-linejoin="round"/>
<path d="M72.5499 61.2444C71.105 62.6893 68.7622 62.6893 67.3173 61.2444C65.8724 59.7995 65.8724 57.4567 67.3173 56.0118C68.7622 54.5669 71.105 54.5669 72.5499 56.0118C73.9948 57.4567 73.9948 59.7995 72.5499 61.2444Z" stroke="white" stroke-width="2" stroke-linecap="round" stroke-linejoin="round"/>
<path d="M62.085 50.7792C60.6401 52.2242 58.2974 52.2242 56.8525 50.7792C55.4075 49.3343 55.4075 46.9916 56.8525 45.5467C58.2974 44.1017 60.6401 44.1017 62.085 45.5467C63.53 46.9916 63.53 49.3343 62.085 50.7792Z" stroke="white" stroke-width="2" stroke-linecap="round" stroke-linejoin="round"/>
<path d="M72.5499 40.3141C71.105 41.759 68.7622 41.759 67.3173 40.3141C65.8724 38.8691 65.8724 36.5264 67.3173 35.0815C68.7622 33.6366 71.1049 33.6365 72.5499 35.0815C73.9948 36.5264 73.9948 38.8692 72.5499 40.3141Z" stroke="white" stroke-width="2" stroke-linecap="round" stroke-linejoin="round"/>
<path d="M83.0147 50.7792C81.5698 52.2242 79.2271 52.2242 77.7821 50.7792C76.3372 49.3343 76.3372 46.9916 77.7821 45.5467C79.2271 44.1017 81.5698 44.1017 83.0147 45.5467C84.4596 46.9916 84.4596 49.3343 83.0147 50.7792Z" stroke="white" stroke-width="2" stroke-linecap="round" stroke-linejoin="round"/>
<path d="M50.0181 96.4932L52.0609 92.007C52.8406 90.2947 52.5931 88.2896 51.4203 86.8184L44.2389 77.8091C43.5404 76.9327 43.1565 75.8471 43.1489 74.7264L42.9926 51.7233C42.9867 50.8515 43.5524 50.0083 44.4237 50.0367C47.3754 50.1326 48.82 53.9175 49.3737 57.3365C49.8872 60.5064 50.5832 65.613 50.5832 65.613M55.9181 78.6322L50.5374 69.0778C49.7223 67.6303 50.2482 65.7958 51.7065 65.0001V65.0001C53.0127 64.2874 54.6444 64.6475 55.5293 65.8438L64.946 78.5746C66.903 81.2204 67.433 84.6596 66.3634 87.7718L63.2075 96.9538" stroke="white" stroke-width="2" stroke-linecap="round"/>
<path d="M109.98 96.663L108.095 92.1082C107.376 90.3697 107.693 88.3745 108.917 86.9451L116.408 78.1919C117.137 77.3404 117.558 76.2689 117.605 75.1492L118.564 52.1655C118.6 51.2944 118.064 50.4321 117.193 50.4299C114.239 50.4228 112.664 54.155 111.991 57.5526C111.367 60.7026 110.493 65.7819 110.493 65.7819M104.707 78.6069L110.418 69.2461C111.283 67.828 110.822 65.9762 109.392 65.1301V65.1301C108.112 64.3722 106.468 64.6752 105.542 65.8398L95.6868 78.2343C93.6387 80.8101 92.989 84.2288 93.9494 87.3764L96.7829 96.663" stroke="white" stroke-width="2" stroke-linecap="round"/>
<path d="M25.0377 128.322C24.0537 128.322 23.1597 128.088 22.3557 127.62C21.5517 127.152 20.9097 126.468 20.4297 125.568C19.9617 124.656 19.7277 123.552 19.7277 122.256C19.7277 120.972 19.9677 119.874 20.4477 118.962C20.9397 118.038 21.5937 117.336 22.4097 116.856C23.2257 116.364 24.1257 116.118 25.1097 116.118C25.8537 116.118 26.5137 116.268 27.0897 116.568C27.6657 116.868 28.1397 117.216 28.5117 117.612L27.3957 118.962C27.0957 118.65 26.7597 118.404 26.3877 118.224C26.0277 118.032 25.6197 117.936 25.1637 117.936C24.5277 117.936 23.9577 118.11 23.4537 118.458C22.9617 118.794 22.5717 119.28 22.2837 119.916C22.0077 120.552 21.8697 121.314 21.8697 122.202C21.8697 123.546 22.1637 124.602 22.7517 125.37C23.3397 126.126 24.1257 126.504 25.1097 126.504C25.6377 126.504 26.1057 126.396 26.5137 126.18C26.9217 125.952 27.2937 125.658 27.6297 125.298L28.7457 126.612C28.2657 127.164 27.7137 127.59 27.0897 127.89C26.4777 128.178 25.7937 128.322 25.0377 128.322ZM30.5308 128.106V119.268H36.3448V120.906H32.6008V128.106H30.5308ZM41.219 128.322C40.403 128.322 39.665 128.142 39.005 127.782C38.345 127.41 37.823 126.882 37.439 126.198C37.055 125.502 36.863 124.668 36.863 123.696C36.863 122.736 37.055 121.908 37.439 121.212C37.835 120.516 38.345 119.982 38.969 119.61C39.593 119.238 40.247 119.052 40.931 119.052C41.735 119.052 42.407 119.232 42.947 119.592C43.487 119.94 43.895 120.432 44.171 121.068C44.447 121.692 44.585 122.418 44.585 123.246C44.585 123.678 44.555 124.014 44.495 124.254H38.879C38.975 125.034 39.257 125.64 39.725 126.072C40.193 126.504 40.781 126.72 41.489 126.72C41.873 126.72 42.227 126.666 42.551 126.558C42.887 126.438 43.217 126.276 43.541 126.072L44.243 127.368C43.823 127.644 43.355 127.872 42.839 128.052C42.323 128.232 41.783 128.322 41.219 128.322ZM38.861 122.85H42.785C42.785 122.166 42.635 121.632 42.335 121.248C42.035 120.852 41.585 120.654 40.985 120.654C40.469 120.654 40.007 120.846 39.599 121.23C39.203 121.602 38.957 122.142 38.861 122.85ZM46.562 128.106V119.268H48.632V122.652H52.16V119.268H54.23V128.106H52.16V124.47H48.632V128.106H46.562ZM60.6428 128.322C59.8268 128.322 59.0888 128.142 58.4288 127.782C57.7688 127.41 57.2468 126.882 56.8628 126.198C56.4788 125.502 56.2868 124.668 56.2868 123.696C56.2868 122.736 56.4788 121.908 56.8628 121.212C57.2588 120.516 57.7688 119.982 58.3928 119.61C59.0168 119.238 59.6708 119.052 60.3548 119.052C61.1588 119.052 61.8308 119.232 62.3708 119.592C62.9108 119.94 63.3188 120.432 63.5948 121.068C63.8708 121.692 64.0088 122.418 64.0088 123.246C64.0088 123.678 63.9788 124.014 63.9188 124.254H58.3028C58.3988 125.034 58.6808 125.64 59.1488 126.072C59.6168 126.504 60.2048 126.72 60.9128 126.72C61.2968 126.72 61.6508 126.666 61.9748 126.558C62.3108 126.438 62.6408 126.276 62.9648 126.072L63.6668 127.368C63.2468 127.644 62.7788 127.872 62.2628 128.052C61.7468 128.232 61.2068 128.322 60.6428 128.322ZM58.2848 122.85H62.2088C62.2088 122.166 62.0588 121.632 61.7588 121.248C61.4588 120.852 61.0088 120.654 60.4088 120.654C59.8928 120.654 59.4308 120.846 59.0228 121.23C58.6268 121.602 58.3808 122.142 58.2848 122.85ZM65.9859 131.598V119.268H67.6959L67.8399 120.204H67.9119C68.2839 119.892 68.6979 119.622 69.1539 119.394C69.6219 119.166 70.0959 119.052 70.5759 119.052C71.6799 119.052 72.5319 119.46 73.1319 120.276C73.7439 121.092 74.0499 122.184 74.0499 123.552C74.0499 124.56 73.8699 125.424 73.5099 126.144C73.1499 126.852 72.6819 127.392 72.1059 127.764C71.5419 128.136 70.9299 128.322 70.2699 128.322C69.8859 128.322 69.5019 128.238 69.1179 128.07C68.7339 127.89 68.3619 127.65 68.0019 127.35L68.0559 128.826V131.598H65.9859ZM69.8379 126.612C70.4259 126.612 70.9179 126.354 71.3139 125.838C71.7099 125.322 71.9079 124.566 71.9079 123.57C71.9079 122.682 71.7579 121.992 71.4579 121.5C71.1579 121.008 70.6719 120.762 69.9999 120.762C69.3759 120.762 68.7279 121.092 68.0559 121.752V125.874C68.3799 126.138 68.6919 126.33 68.9919 126.45C69.2919 126.558 69.5739 126.612 69.8379 126.612ZM76.146 128.106V119.268H78.162V122.31C78.162 122.766 78.138 123.276 78.09 123.84C78.054 124.392 78.018 124.95 77.982 125.514H78.036C78.192 125.238 78.378 124.926 78.594 124.578C78.81 124.218 78.99 123.906 79.134 123.642L81.942 119.268H83.85V128.106H81.834V125.064C81.834 124.608 81.852 124.098 81.888 123.534C81.936 122.97 81.984 122.412 82.032 121.86H81.96C81.804 122.124 81.618 122.436 81.402 122.796C81.198 123.156 81.018 123.468 80.862 123.732L78.054 128.106H76.146ZM86.482 131.598V119.268H88.192L88.336 120.204H88.408C88.78 119.892 89.194 119.622 89.65 119.394C90.118 119.166 90.592 119.052 91.072 119.052C92.176 119.052 93.028 119.46 93.628 120.276C94.24 121.092 94.546 122.184 94.546 123.552C94.546 124.56 94.366 125.424 94.006 126.144C93.646 126.852 93.178 127.392 92.602 127.764C92.038 128.136 91.426 128.322 90.766 128.322C90.382 128.322 89.998 128.238 89.614 128.07C89.23 127.89 88.858 127.65 88.498 127.35L88.552 128.826V131.598H86.482ZM90.334 126.612C90.922 126.612 91.414 126.354 91.81 125.838C92.206 125.322 92.404 124.566 92.404 123.57C92.404 122.682 92.254 121.992 91.954 121.5C91.654 121.008 91.168 120.762 90.496 120.762C89.872 120.762 89.224 121.092 88.552 121.752V125.874C88.876 126.138 89.188 126.33 89.488 126.45C89.788 126.558 90.07 126.612 90.334 126.612ZM100.26 128.322C99.5281 128.322 98.8441 128.142 98.2081 127.782C97.5721 127.41 97.0561 126.882 96.6601 126.198C96.2641 125.502 96.0661 124.668 96.0661 123.696C96.0661 122.712 96.2641 121.878 96.6601 121.194C97.0561 120.498 97.5721 119.97 98.2081 119.61C98.8441 119.238 99.5281 119.052 100.26 119.052C101.004 119.052 101.694 119.238 102.33 119.61C102.966 119.97 103.482 120.498 103.878 121.194C104.274 121.878 104.472 122.712 104.472 123.696C104.472 124.668 104.274 125.502 103.878 126.198C103.482 126.882 102.966 127.41 102.33 127.782C101.694 128.142 101.004 128.322 100.26 128.322ZM100.26 126.63C100.908 126.63 101.418 126.36 101.79 125.82C102.162 125.28 102.348 124.572 102.348 123.696C102.348 122.808 102.162 122.094 101.79 121.554C101.418 121.014 100.908 120.744 100.26 120.744C99.6121 120.744 99.1021 121.014 98.7301 121.554C98.3701 122.094 98.1901 122.808 98.1901 123.696C98.1901 124.572 98.3701 125.28 98.7301 125.82C99.1021 126.36 99.6121 126.63 100.26 126.63ZM106.521 128.106V119.268H110.103C110.763 119.268 111.345 119.34 111.849 119.484C112.365 119.628 112.773 119.868 113.073 120.204C113.373 120.54 113.523 120.99 113.523 121.554C113.523 121.986 113.397 122.37 113.145 122.706C112.905 123.03 112.539 123.264 112.047 123.408V123.48C112.575 123.6 113.013 123.828 113.361 124.164C113.709 124.488 113.883 124.956 113.883 125.568C113.883 126.156 113.721 126.642 113.397 127.026C113.085 127.398 112.659 127.674 112.119 127.854C111.579 128.022 110.967 128.106 110.283 128.106H106.521ZM108.555 122.85H109.905C110.481 122.85 110.895 122.754 111.147 122.562C111.399 122.37 111.525 122.106 111.525 121.77C111.525 121.422 111.405 121.152 111.165 120.96C110.925 120.768 110.523 120.672 109.959 120.672H108.555V122.85ZM108.555 126.702H110.139C110.739 126.702 111.171 126.588 111.435 126.36C111.711 126.132 111.849 125.826 111.849 125.442C111.849 125.082 111.699 124.794 111.399 124.578C111.111 124.362 110.667 124.254 110.067 124.254H108.555V126.702ZM117.979 128.322C117.211 128.322 116.581 128.082 116.089 127.602C115.609 127.122 115.369 126.498 115.369 125.73C115.369 124.782 115.783 124.05 116.611 123.534C117.439 123.006 118.759 122.646 120.571 122.454C120.559 121.986 120.433 121.584 120.193 121.248C119.965 120.9 119.551 120.726 118.951 120.726C118.519 120.726 118.093 120.81 117.673 120.978C117.265 121.146 116.863 121.35 116.467 121.59L115.711 120.204C116.203 119.892 116.755 119.622 117.367 119.394C117.991 119.166 118.651 119.052 119.347 119.052C120.451 119.052 121.273 119.382 121.813 120.042C122.365 120.69 122.641 121.632 122.641 122.868V128.106H120.931L120.787 127.134H120.715C120.319 127.47 119.893 127.752 119.437 127.98C118.993 128.208 118.507 128.322 117.979 128.322ZM118.645 126.702C119.005 126.702 119.329 126.618 119.617 126.45C119.917 126.27 120.235 126.03 120.571 125.73V123.75C119.371 123.906 118.537 124.14 118.069 124.452C117.601 124.752 117.367 125.124 117.367 125.568C117.367 125.964 117.487 126.252 117.727 126.432C117.967 126.612 118.273 126.702 118.645 126.702ZM126.763 128.106V120.906H123.991V119.268H131.623V120.906H128.851V128.106H126.763ZM133.398 128.106V119.268H135.468V122.292H136.8C137.508 122.292 138.138 122.388 138.69 122.58C139.242 122.772 139.674 123.078 139.986 123.498C140.298 123.918 140.454 124.476 140.454 125.172C140.454 125.88 140.298 126.45 139.986 126.882C139.674 127.314 139.242 127.626 138.69 127.818C138.138 128.01 137.508 128.106 136.8 128.106H133.398ZM135.468 126.504H136.656C137.856 126.504 138.456 126.054 138.456 125.154C138.456 124.29 137.856 123.858 136.656 123.858H135.468V126.504ZM55.4754 148.106V140.906H52.7034V139.268H60.3354V140.906H57.5634V148.106H55.4754ZM63.8652 148.322C63.0972 148.322 62.4672 148.082 61.9752 147.602C61.4952 147.122 61.2552 146.498 61.2552 145.73C61.2552 144.782 61.6692 144.05 62.4972 143.534C63.3252 143.006 64.6452 142.646 66.4572 142.454C66.4452 141.986 66.3192 141.584 66.0792 141.248C65.8512 140.9 65.4372 140.726 64.8372 140.726C64.4052 140.726 63.9792 140.81 63.5592 140.978C63.1512 141.146 62.7492 141.35 62.3532 141.59L61.5972 140.204C62.0892 139.892 62.6412 139.622 63.2532 139.394C63.8772 139.166 64.5372 139.052 65.2332 139.052C66.3372 139.052 67.1592 139.382 67.6992 140.042C68.2512 140.69 68.5272 141.632 68.5272 142.868V148.106H66.8172L66.6732 147.134H66.6012C66.2052 147.47 65.7792 147.752 65.3232 147.98C64.8792 148.208 64.3932 148.322 63.8652 148.322ZM64.5312 146.702C64.8912 146.702 65.2152 146.618 65.5032 146.45C65.8032 146.27 66.1212 146.03 66.4572 145.73V143.75C65.2572 143.906 64.4232 144.14 63.9552 144.452C63.4872 144.752 63.2532 145.124 63.2532 145.568C63.2532 145.964 63.3732 146.252 63.6132 146.432C63.8532 146.612 64.1592 146.702 64.5312 146.702ZM72.5344 143.12C72.5344 144.26 72.7264 145.13 73.1104 145.73C73.5064 146.33 74.0704 146.63 74.8024 146.63C75.3784 146.63 75.8404 146.372 76.1884 145.856C76.5364 145.328 76.7104 144.632 76.7104 143.768C76.7104 142.916 76.5424 142.28 76.2064 141.86C75.8704 141.428 75.3964 141.212 74.7844 141.212C74.4124 141.212 74.0284 141.308 73.6324 141.5C73.2484 141.692 72.8824 142.034 72.5344 142.526C72.5344 142.622 72.5344 142.724 72.5344 142.832C72.5344 142.928 72.5344 143.024 72.5344 143.12ZM74.8204 148.322C73.4644 148.322 72.4144 147.83 71.6704 146.846C70.9264 145.85 70.5544 144.458 70.5544 142.67C70.5544 141.254 70.6864 140.102 70.9504 139.214C71.2144 138.326 71.5924 137.636 72.0844 137.144C72.5764 136.64 73.1584 136.268 73.8304 136.028C74.5144 135.776 75.2704 135.59 76.0984 135.47C76.6264 135.398 77.0224 135.326 77.2864 135.254C77.5504 135.182 77.8144 135.086 78.0784 134.966L78.4924 136.802C78.2644 136.958 77.9764 137.084 77.6284 137.18C77.2804 137.276 76.9144 137.354 76.5304 137.414C75.8704 137.51 75.3004 137.612 74.8204 137.72C74.3524 137.816 73.9684 137.978 73.6684 138.206C73.3684 138.422 73.1344 138.746 72.9664 139.178C72.7984 139.598 72.6784 140.18 72.6064 140.924C72.9544 140.504 73.3684 140.186 73.8484 139.97C74.3404 139.754 74.8444 139.646 75.3604 139.646C76.0204 139.646 76.6084 139.808 77.1244 140.132C77.6524 140.444 78.0664 140.906 78.3664 141.518C78.6784 142.13 78.8344 142.88 78.8344 143.768C78.8344 144.68 78.6544 145.478 78.2944 146.162C77.9464 146.846 77.4664 147.38 76.8544 147.764C76.2544 148.136 75.5764 148.322 74.8204 148.322ZM84.7336 148.322C83.9176 148.322 83.1796 148.142 82.5196 147.782C81.8596 147.41 81.3376 146.882 80.9536 146.198C80.5696 145.502 80.3776 144.668 80.3776 143.696C80.3776 142.736 80.5696 141.908 80.9536 141.212C81.3496 140.516 81.8596 139.982 82.4836 139.61C83.1076 139.238 83.7616 139.052 84.4456 139.052C85.2496 139.052 85.9216 139.232 86.4616 139.592C87.0016 139.94 87.4096 140.432 87.6856 141.068C87.9616 141.692 88.0996 142.418 88.0996 143.246C88.0996 143.678 88.0696 144.014 88.0096 144.254H82.3936C82.4896 145.034 82.7716 145.64 83.2396 146.072C83.7076 146.504 84.2956 146.72 85.0036 146.72C85.3876 146.72 85.7416 146.666 86.0656 146.558C86.4016 146.438 86.7316 146.276 87.0556 146.072L87.7576 147.368C87.3376 147.644 86.8696 147.872 86.3536 148.052C85.8376 148.232 85.2976 148.322 84.7336 148.322ZM82.3756 142.85H86.2996C86.2996 142.166 86.1496 141.632 85.8496 141.248C85.5496 140.852 85.0996 140.654 84.4996 140.654C83.9836 140.654 83.5216 140.846 83.1136 141.23C82.7176 141.602 82.4716 142.142 82.3756 142.85ZM89.8427 148.322C89.4947 148.322 89.1827 148.262 88.9067 148.142L89.2667 146.27C89.3267 146.282 89.3927 146.3 89.4647 146.324C89.5367 146.336 89.6147 146.342 89.6987 146.342C89.9747 146.342 90.2027 146.216 90.3827 145.964C90.5627 145.712 90.6887 145.31 90.7607 144.758C90.8807 143.834 90.9887 142.916 91.0847 142.004C91.1927 141.092 91.2947 140.18 91.3907 139.268H97.3847V148.106H95.3147V140.906H93.0467C92.9627 141.638 92.8727 142.376 92.7767 143.12C92.6927 143.852 92.6027 144.584 92.5067 145.316C92.3747 146.3 92.0867 147.05 91.6427 147.566C91.1987 148.07 90.5987 148.322 89.8427 148.322ZM100.008 148.106V139.268H102.078V142.292H103.41C104.118 142.292 104.748 142.388 105.3 142.58C105.852 142.772 106.284 143.078 106.596 143.498C106.908 143.918 107.064 144.476 107.064 145.172C107.064 145.88 106.908 146.45 106.596 146.882C106.284 147.314 105.852 147.626 105.3 147.818C104.748 148.01 104.118 148.106 103.41 148.106H100.008ZM102.078 146.504H103.266C104.466 146.504 105.066 146.054 105.066 145.154C105.066 144.29 104.466 143.858 103.266 143.858H102.078V146.504Z" fill="white"/>
</g>
<defs>
<filter id="filter0_d_216_5597" x="0" y="0" width="160" height="180.106" filterUnits="userSpaceOnUse" color-interpolation-filters="sRGB">
<feFlood flood-opacity="0" result="BackgroundImageFix"/>
<feColorMatrix in="SourceAlpha" type="matrix" values="0 0 0 0 0 0 0 0 0 0 0 0 0 0 0 0 0 0 127 0" result="hardAlpha"/>
<feOffset dy="3"/>
<feGaussianBlur stdDeviation="2.5"/>
<feComposite in2="hardAlpha" operator="out"/>
<feColorMatrix type="matrix" values="0 0 0 0 0 0 0 0 0 0 0 0 0 0 0 0 0 0 0.1 0"/>
<feBlend mode="normal" in2="BackgroundImageFix" result="effect1_dropShadow_216_5597"/>
<feBlend mode="normal" in="SourceGraphic" in2="effect1_dropShadow_216_5597" result="shape"/>
</filter>
<linearGradient id="paint0_linear_216_5597" x1="117.742" y1="2" x2="-13.6165" y2="115.255" gradientUnits="userSpaceOnUse">
<stop stop-color="#FFCD4D"/>
<stop offset="0.5" stop-color="#FF78A9"/>
<stop offset="1" stop-color="#B880FF"/>
</linearGradient>
<linearGradient id="paint1_linear_216_5597" x1="150.161" y1="5" x2="-0.166707" y2="163.087" gradientUnits="userSpaceOnUse">
<stop stop-color="#5AE1FF"/>
<stop offset="1" stop-color="#4FDE77"/>
</linearGradient>
</defs>
</svg>
