<svg width="17" height="17" viewBox="0 0 17 17" fill="none" xmlns="http://www.w3.org/2000/svg">
<path fill-rule="evenodd" clip-rule="evenodd" d="M4.32821 4.32653C6.09915 2.55559 8.97041 2.55559 10.7413 4.32653C12.5123 6.09747 12.5123 8.96873 10.7413 10.7397C8.97041 12.5106 6.09914 12.5106 4.32821 10.7397C2.55726 8.96873 2.55727 6.09747 4.32821 4.32653ZM12.5091 2.55876C9.76186 -0.188491 5.30769 -0.188491 2.56044 2.55876C-0.186813 5.30601 -0.186813 9.76018 2.56044 12.5074C5.0061 14.9531 8.80448 15.2216 11.5471 13.3129L14.3698 16.1355C14.8579 16.6237 15.6494 16.6237 16.1376 16.1355C16.6257 15.6474 16.6257 14.8559 16.1376 14.3678L13.3148 11.5451C15.2232 8.80243 14.9547 5.0043 12.5091 2.55876Z" fill="#00A3FF"/>
</svg>
